<svg width="52" height="52" fill="none" xmlns="http://www.w3.org/2000/svg"><g fill="#3D3D63"><path fill-rule="evenodd" clip-rule="evenodd" d="M47.043 22.325H36.348a9.993 9.993 0 0 0-7.072-7.063l-.217-1.733 2.748-.53c.71-.13 1.32-.585 1.646-1.23a2.028 2.028 0 0 0-1.811-2.929h-3.155v-.113a2.487 2.487 0 0 0-4.94 0v.122h-3.189a2.028 2.028 0 0 0-1.811 2.929A2.314 2.314 0 0 0 20.193 13l2.748.503-.217 1.733a9.993 9.993 0 0 0-7.072 7.063H4.949a2.063 2.063 0 0 0-.13 4.117l1.854.113a2.843 2.843 0 0 0-.338 1.326 2.895 2.895 0 1 0 5.79 0 2.862 2.862 0 0 0-.2-.988l3.597.216c.945 5.114 5.382 9.109 10.478 9.109s9.533-3.987 10.478-9.109l3.588-.216a3.051 3.051 0 0 0-.2 1.014 2.895 2.895 0 1 0 5.79 0 2.842 2.842 0 0 0-.338-1.326l1.855-.113a2.063 2.063 0 0 0-.13-4.117ZM9.23 29.042a1.161 1.161 0 1 1 .017-2.323 1.161 1.161 0 0 1-.017 2.323Zm32.379-1.161a1.161 1.161 0 1 0 2.322 0 1.161 1.161 0 0 0-2.322 0Zm-9.967-17.273c.1-.003.194.05.243.139a.286.286 0 0 1 0 .286.555.555 0 0 1-.408.294l-2.643.486-.147-1.205h2.955Zm-11.544.425c.08.157.232.267.407.294l2.626.486.148-1.205H20.34a.269.269 0 0 0-.243.139.286.286 0 0 0 0 .286Zm5.148-2.072a.763.763 0 0 1 1.508 0l.737 5.946a11.704 11.704 0 0 0-2.982 0l.737-5.946ZM4.619 24.388c0 .17.133.311.304.32l10.426.616V24.059h-10.4a.33.33 0 0 0-.33.329ZM26 34.458c-4.767 0-8.953-4.454-8.953-9.533 0-4.775 3.848-8.372 8.953-8.372 5.105 0 8.953 3.597 8.953 8.372 0 5.079-4.186 9.534-8.953 9.534Zm10.677-9.125 10.4-.624a.32.32 0 0 0 .33-.321.329.329 0 0 0-.33-.33h-10.4v1.275Z"/><path fill-rule="evenodd" clip-rule="evenodd" d="M22.195 20.315h7.61a2.08 2.08 0 0 1 1.672.788 6.975 6.975 0 0 1 1.335 2.6c.17.64.033 1.323-.373 1.846a2.063 2.063 0 0 1-1.655.815h-9.533a2.063 2.063 0 0 1-1.656-.815 2.123 2.123 0 0 1-.372-1.846 6.977 6.977 0 0 1 1.334-2.6c.396-.5 1-.79 1.638-.788Zm5.01 4.333v-2.6H24.82v2.6h2.384Zm-6.214-.147a.372.372 0 0 1-.061-.347 5.355 5.355 0 0 1 .997-1.967.398.398 0 0 1 .294-.139h.867v2.6h-1.837a.364.364 0 0 1-.286-.147h.026Zm9.784.138a.364.364 0 0 0 .286-.138h-.026a.364.364 0 0 0 .035-.347 5.32 5.32 0 0 0-.997-1.976.399.399 0 0 0-.294-.139h-.867v2.6h1.863Z"/><path d="M44.486 35.04a9.473 9.473 0 0 0-8.086 4.54 5.495 5.495 0 0 0-7.696 4.125h-.26a.867.867 0 1 0 0 1.734h1.023a.867.867 0 0 0 .866-.866 3.762 3.762 0 0 1 5.885-3.094c.461.319.846.736 1.127 1.222.155.269.443.434.754.433a.867.867 0 0 0 .745-1.3 5.552 5.552 0 0 0-1.023-1.274 7.748 7.748 0 0 1 6.665-3.787.867.867 0 1 0 0-1.734ZM24.847 43.706h-1.525a5.486 5.486 0 0 0-7.687-4.125 9.473 9.473 0 0 0-8.121-4.542.867.867 0 1 0 0 1.734 7.748 7.748 0 0 1 6.665 3.787 5.557 5.557 0 0 0-1.023 1.274.867.867 0 0 0 1.5.867c.28-.486.665-.903 1.126-1.222a3.753 3.753 0 0 1 5.772 2.227h-.173a.867.867 0 1 0 0 1.733h3.466a.867.867 0 0 0 0-1.733Z"/></g></svg>