<svg width="51" height="50" fill="none" xmlns="http://www.w3.org/2000/svg"><path fill-rule="evenodd" clip-rule="evenodd" d="M46.233 40.483H44.5c.228-.428.348-.906.35-1.391V25.667c.36-.726.548-1.524.55-2.334v-5.35c0-1.072-.87-1.941-1.942-1.941h-5.833v-.834a8.067 8.067 0 0 0-8.058-8.058h-8.884a8.067 8.067 0 0 0-8.058 8.058v.834H6.792c-1.073 0-1.942.869-1.942 1.941v5.35c0 .813.188 1.614.55 2.342v13.417c.002.485.122.963.35 1.391H4.017a.833.833 0 1 0 0 1.667h16l-.1 1.417a.833.833 0 0 0 .258.658l4.367 4.233a.833.833 0 0 0 1.166 0l4.367-4.233a.833.833 0 0 0 .258-.658l-.1-1.417h16a.833.833 0 1 0 0-1.667ZM14.292 15.208a6.4 6.4 0 0 1 6.391-6.391h8.884a6.4 6.4 0 0 1 6.391 6.391v.834h-1.666v-.834a4.725 4.725 0 0 0-4.725-4.725h-8.884a4.725 4.725 0 0 0-4.725 4.725v.834h-1.666v-.834Zm18.333.834v-.834a3.058 3.058 0 0 0-3.058-3.058h-8.884a3.058 3.058 0 0 0-3.058 3.058v.834h1.6c.095-.255.233-.492.408-.7a2.5 2.5 0 0 1 1.9-.884h7.184a2.5 2.5 0 0 1 1.9.884c.175.208.313.445.408.7h1.6ZM8.458 40.483a1.392 1.392 0 0 1-1.391-1.391V27.617a5.25 5.25 0 0 0 3.058.983h.833v1.05a3.058 3.058 0 1 0 6.109 0V28.6h3.891l-.833 11.883H8.458Zm4.167-13.333v2.5a1.392 1.392 0 1 0 2.775 0v-2.5h-2.775Zm8.417-.217h-3.975v-.058a1.384 1.384 0 0 0-1.384-1.392H12.35c-.769 0-1.392.623-1.392 1.392v.058h-.833a3.608 3.608 0 0 1-3.608-3.6v-5.35c0-.152.123-.275.275-.275h12.333l.583 3.459a1.925 1.925 0 0 0 1.609 1.6l-.275 4.166Zm.75 13.625-.184 2.775.667.592 6.183-3.575-.25-3.492-6.416 3.7Zm5.7-14.391.233 3.491-5.408 3.125.25-3.783 4.925-2.833Zm-4.5-3.334L22.708 27l4.659-2.65-.109-1.517h-4.266Zm4.858 8.675.233 3.5-6.158 3.55.258-3.775 5.667-3.275ZM23.5 45.1l1.625 1.567 3.517-3.409-.075-1.083L23.5 45.1Zm5.125-24.008h-7a.275.275 0 0 1-.275-.234l-.633-3.8a.833.833 0 0 1 .183-.675.833.833 0 0 1 .633-.291h7.184c.243 0 .475.106.633.291a.833.833 0 0 1 .183.675l-.633 3.8a.275.275 0 0 1-.275.267v-.033Zm1.917.075a1.925 1.925 0 0 1-1.609 1.591l.275 4.175h3.975v-.058a1.384 1.384 0 0 1 1.384-1.392H37.9c.769 0 1.392.623 1.392 1.392v.058h.833c1.99 0 3.604-1.61 3.608-3.6v-5.35a.275.275 0 0 0-.275-.275H31.125l-.583 3.459Zm7.083 5.983v2.5a1.392 1.392 0 1 1-2.775 0v-2.5h2.775Zm-8.333 1.45.833 11.883h11.667a1.392 1.392 0 0 0 1.358-1.391V27.617a5.25 5.25 0 0 1-3.058.983h-.834v1.05a3.058 3.058 0 1 1-6.108 0V28.6h-3.858Z" fill="#3D3D63"/></svg>