<svg width="51" height="50" fill="none" xmlns="http://www.w3.org/2000/svg"><path fill-rule="evenodd" clip-rule="evenodd" d="M48.1 41.567 39.95 30a16.092 16.092 0 1 0-28.25.15L3.65 41.567a1.358 1.358 0 0 0 1.117 2.15h42.216a1.358 1.358 0 0 0 1.117-2.15ZM14.767 28.592l3 4.258-1.334 1.892-1.083-1.084a.833.833 0 0 0-.575-.241.833.833 0 0 0-.575.241l-2.192 2.175-1.383-1.358 4.142-5.883Zm14.8-11.584.683-.916-3.65-.009V18.9h3.65l-.683-.917a.833.833 0 0 1 0-.975Zm-3.792 7.3 4.742 6.734-1.625 1.625-2.45-2.45a.833.833 0 0 0-1.15 0L22.983 32.5l-1.758-1.758 4.55-6.434Zm-3.375 9.95-2.133-2.133-7.017 9.967h25.075l-6.85-9.717-2 2.008a.833.833 0 0 1-1.15 0l-2.45-2.45-2.325 2.325a.833.833 0 0 1-1.15 0Zm11.475-1.3 3.092-4.383 4.166 5.883-1.391 1.375-2.2-2.175a.833.833 0 0 0-.575-.241.833.833 0 0 0-.575.241l-1.184 1.192-1.333-1.892ZM20.442 8.927a14.467 14.467 0 0 0-9.125 13.448 14.474 14.474 0 0 0 1.416 6.258l.909-1.283a1.416 1.416 0 0 1 2.233 0l2.867 4.058 5.9-8.333c.084-.113.188-.21.308-.283v-7.5c0-.46.373-.834.833-.834h6.109a.833.833 0 0 1 .65 1.3L31.233 17.5l1.309 1.717a.833.833 0 0 1-.659 1.3H26.6v2.258c.115.077.217.172.3.283l5.958 8.5 2.967-4.208a1.417 1.417 0 0 1 2.233 0l.834 1.142a14.467 14.467 0 0 0-18.45-19.565ZM9.683 35.833l1.75 1.75a.833.833 0 0 0 1.15 0l2.2-2.191.709.708-3.859 5.475a1.374 1.374 0 0 0-.216.525H5.258l4.425-6.267Zm30.259 5.742c.105.158.176.337.208.525l6.383-.008-4.425-6.267-1.75 1.75a.833.833 0 0 1-1.15 0l-2.216-2.2-.834.833 3.784 5.367Z" fill="#3D3D63"/></svg>