<svg width="11" height="6" fill="none" xmlns="http://www.w3.org/2000/svg"><mask id="a" style="mask-type:alpha" maskUnits="userSpaceOnUse" x="0" y="0" width="11" height="6"><path fill-rule="evenodd" clip-rule="evenodd" d="M.818 5.682v-5.5h10v5.5h-10Z" fill="#fff"/></mask><g mask="url(#a)"><path fill-rule="evenodd" clip-rule="evenodd" d="M5.818 4.97 1.302.268a.274.274 0 0 0-.4 0 .302.302 0 0 0 0 .416l4.717 4.91c.11.116.29.116.4 0l4.715-4.91a.302.302 0 0 0 .084-.207.293.293 0 0 0-.084-.207.274.274 0 0 0-.4 0L5.818 4.969Z" fill="#000" stroke="#4E72CA"/></g></svg>