<svg width="50" height="49" fill="none" xmlns="http://www.w3.org/2000/svg"><g fill="#3D3D63"><path d="M12.41 22.867a.817.817 0 0 0 .661-.948l-.196-1.004a.829.829 0 1 0-1.633.286l.18 1.012a.817.817 0 0 0 .987.654ZM9.715 25.447l1.02-.18a.817.817 0 1 0-.31-1.584l-1.013.18a.828.828 0 0 0 .278 1.633l.025-.049ZM12.18 26.28l.18 1.013a.817.817 0 0 0 1.61-.278l-.18-1.02a.817.817 0 1 0-1.61.285ZM14.802 24.55l1.013-.18a.83.83 0 0 0-.286-1.634l-1.02.204a.83.83 0 0 0 .285 1.634l.008-.025ZM29.274 20.343l-1.013.18a.817.817 0 0 0-.686.939.817.817 0 0 0 .947.67l1.021-.18a.817.817 0 0 0 .662-.947.817.817 0 0 0-.931-.662ZM31.658 22.05a.817.817 0 0 0-.661.94l.18 1.02c.078.44.497.736.939.662a.817.817 0 0 0 .678-.989l-.18-1.012a.817.817 0 0 0-.956-.621ZM40.152 15.68a.817.817 0 0 0-1.095.367 2.45 2.45 0 0 1-4.63-.988.817.817 0 0 0-1.633 0 4.083 4.083 0 0 0 7.725 1.634.817.817 0 0 0-.367-1.013ZM34.108 12.7a1.078 1.078 0 0 0 1.29-.817 1.094 1.094 0 0 0-.816-1.299 1.103 1.103 0 0 0-1.29.85 1.094 1.094 0 0 0 .816 1.265ZM40.748 11.883a1.086 1.086 0 1 0 .817 1.29 1.094 1.094 0 0 0-.817-1.29Z"/><path fill-rule="evenodd" clip-rule="evenodd" d="M45.297 15.909a8.436 8.436 0 0 0-16.268-4.402 6.264 6.264 0 0 0-2.132 1.143 2.45 2.45 0 0 0-.874 1.715l-.155 2.197-.147.212-2.344.417c1.225-1.731 2.614-4.451 1.568-6.999-1.543-3.732-7.17-3.659-8.852-3.528-1.338.07-2.658.345-3.912.817-1.47.58-2.516.661-3.39.253a1.495 1.495 0 0 1-.816-1.266.82.82 0 1 0-1.633.13 3.12 3.12 0 0 0 1.772 2.655 5.929 5.929 0 0 0 4.68-.22c1.095-.422 2.25-.67 3.421-.736 2.916-.204 6.33.351 7.228 2.516 1.102 2.686-1.78 6.018-2.524 6.81l-4.28.752-.212-.155-.898-2.01a2.4 2.4 0 0 0-1.405-1.306 6.362 6.362 0 0 0-6.043 1.07 2.45 2.45 0 0 0-.874 1.707l-.155 2.197a6.982 6.982 0 0 0-1.429 4.23V24.892L4.806 37.51a5.423 5.423 0 0 0 4.476 5.716 5.43 5.43 0 0 0 6.15-3.822l1.82-6.207c.071.005.142.005.213 0a3.65 3.65 0 0 0 3.577-3.47l4.336-.76a3.675 3.675 0 0 0 3.373 2.23c.498.001.99-.102 1.445-.302l3.83 5.202a5.43 5.43 0 0 0 9.343-5.399l-3.707-8.534a8.444 8.444 0 0 0 5.635-6.255Zm-17.64-1.43a.817.817 0 0 1 .277-.563 4.03 4.03 0 0 1 .703-.466 9.238 9.238 0 0 0 0 .948 6.762 6.762 0 0 0-.989.539l.009-.457Zm-1.658 10.666a6.926 6.926 0 0 1-1.2-6.582l-6.69 1.209a6.934 6.934 0 0 1 1.136 6.606 3.667 3.667 0 0 1 1.543 1.74l4.337-.76a3.618 3.618 0 0 1 .874-2.213ZM8.832 17.746a.817.817 0 0 1 .278-.563 4.687 4.687 0 0 1 4.467-.817.816.816 0 0 1 .458.433l.18.408a6.82 6.82 0 0 0-5.423 1.037l.04-.498Zm9.163 6.313a5.382 5.382 0 0 0-5.373-5.382v.025a5.382 5.382 0 0 0 0 10.755c.398-.004.795-.05 1.184-.139a3.65 3.65 0 0 1 3.634-3.454 2.34 2.34 0 0 1 .237 0 5.31 5.31 0 0 0 .319-1.805ZM13.84 38.873a3.79 3.79 0 0 1-7.424-1.306l.596-9.335a6.983 6.983 0 0 0 5.61 2.834 7.15 7.15 0 0 0 1.454-.163 3.659 3.659 0 0 0 1.585 1.764l-1.821 6.206Zm1.73-8.6a2.025 2.025 0 0 0 1.871 1.25v.041a2.025 2.025 0 0 0 2.025-2.066 2.025 2.025 0 1 0-3.896.775Zm13.215-.71a2.025 2.025 0 0 1-2.026-2.017 1.96 1.96 0 0 1 .417-1.217 6.982 6.982 0 0 0 3.601 1.438 2.01 2.01 0 0 1-1.992 1.796Zm.049-13.466a5.382 5.382 0 0 0-2.76 4.687 5.374 5.374 0 0 0 10.436 1.789 8.99 8.99 0 0 1-1.225-.164 8.444 8.444 0 0 1-6.451-6.313Zm13.075 15.255a3.798 3.798 0 0 1-6.534 3.773l-3.838-5.21c.522-.6.832-1.355.882-2.148a6.999 6.999 0 0 0 5.717-4.9l3.773 8.485Zm-11.57-15.953a6.81 6.81 0 1 0 13.393-2.492 6.81 6.81 0 0 0-13.392 2.492Z"/></g></svg>