<svg width="51" height="50" fill="none" xmlns="http://www.w3.org/2000/svg"><g fill="#3D3D63"><path d="M37.483 12.967a.833.833 0 0 0-.833-.834h-5a.833.833 0 1 0 0 1.667h5a.833.833 0 0 0 .833-.833Z"/><path fill-rule="evenodd" clip-rule="evenodd" d="M46.358 42.317h-1.325c.075-.286.093-.583.05-.875l-2.241-14.567a2.892 2.892 0 0 0-2.867-2.458h-5v-4.5h1.667a.833.833 0 0 0 .591-.242l3.584-3.583a.833.833 0 0 0 .25-.592v-5.067a.833.833 0 0 0-.25-.591l-3.584-3.584a.833.833 0 0 0-.591-.241h-5.017a.833.833 0 0 0-.592.241L27.45 9.842a.834.834 0 0 0-.242.591V15.5a.833.833 0 0 0 .242.592l3.583 3.583c.16.152.371.238.592.242h1.667v4.5H20.108a2.883 2.883 0 0 0-2.866 2.458l-.234 1.458h-2.725a.833.833 0 0 0 0 1.667h2.5L15 41.442c-.046.291-.03.59.05.875h-1.467l-1.666-9.167a1.558 1.558 0 0 0-1.525-1.283v-.375a2.733 2.733 0 1 0-1.667 0v.375c-.75.007-1.39.545-1.525 1.283l-1.667 9.167H4.142a.833.833 0 0 0 0 1.666h42.216a.833.833 0 1 0 0-1.666ZM8.492 28.867a1.075 1.075 0 1 1 2.141.189 1.075 1.075 0 0 1-2.141-.19Zm2.183 6.741-.383-2.1H8.825l-.167.934 2.017 1.166Zm-2.333.575 2.741 1.575.375 2.075-3.425-1.966.309-1.684Zm3.525 5.8L7.75 39.608l-.525 2.709h4.708l-.066-.334Zm30.258-9.041.908 5.908H17.075l.917-5.908h24.133Zm-13.25-17.784 3.1 3.092h4.375l3.067-3.092v-4.383L36.35 7.683h-4.375l-3.1 3.092v4.383Zm-8.767 10.925h19.867a1.225 1.225 0 0 1 1.217 1.042l.641 4.167H18.242l.641-4.167a1.233 1.233 0 0 1 1.225-1.042Zm22.784 16.234a.541.541 0 0 0 .541-.65l-.175-1.125H16.825l-.183 1.15a.558.558 0 0 0 .125.441.575.575 0 0 0 .416.184h25.709Z"/><path d="m26.558 35.958-.608.617a.833.833 0 0 0 1.175 1.175l1.2-1.2a.833.833 0 0 0 0-1.175l-1.275-1.283a.837.837 0 1 0-1.183 1.183l.691.683ZM20.675 35.958l-.608.617a.833.833 0 1 0 1.175 1.175l1.2-1.2a.833.833 0 0 0 0-1.175l-1.275-1.283a.837.837 0 0 0-1.184 1.183l.692.683ZM32.442 35.958l-.609.617a.833.833 0 0 0 1.175 1.175l1.2-1.2a.833.833 0 0 0 0-1.175l-1.275-1.283a.837.837 0 1 0-1.183 1.183l.692.683ZM38.325 35.958l-.608.617a.833.833 0 0 0 1.175 1.175l1.2-1.2a.833.833 0 0 0 0-1.175l-1.275-1.283a.837.837 0 0 0-1.184 1.183l.692.683Z"/><path fill-rule="evenodd" clip-rule="evenodd" d="M10.567 24.65c.46 0 .833-.373.833-.833v-.9h13.017a.833.833 0 0 0 0-1.667h-1.234l-2.541-2.85a2.5 2.5 0 0 0-1.867-.833 2.5 2.5 0 0 0-1.867.833l-.5.558a2.025 2.025 0 0 0-2.683.2l-1.858 2.092h-1.3a.833.833 0 0 0-.834.833v1.734c0 .46.373.833.834.833Zm7.591-5.142a.834.834 0 0 1 .617-.275.833.833 0 0 1 .625.275l1.55 1.742h-2.458l-.942-1.058.608-.684Zm-2.766.759c-.15-.159-.275-.159-.417 0l-.917.983h2.167l-.833-.983Z"/><path d="M27.233 22.917H28.9a.833.833 0 1 0 0-1.667h-1.667a.833.833 0 1 0 0 1.667ZM25.125 29.525h9.833a.833.833 0 0 0 0-1.667h-9.833a.833.833 0 0 0 0 1.667Z"/></g></svg>