<svg width="67" height="67" fill="none" xmlns="http://www.w3.org/2000/svg"><g opacity=".9"><g clip-path="url(#a)"><circle cx="33.5" cy="33.5" r="33.5" fill="#414D6A"/><mask id="b" style="mask-type:alpha" maskUnits="userSpaceOnUse" x="0" y="0" width="67" height="67"><circle cx="33.5" cy="33.5" r="33.5" fill="#fff"/></mask></g><path fill-rule="evenodd" clip-rule="evenodd" d="M13 42.101V21.59a.56.56 0 0 1 .187-.403.568.568 0 0 1 .406-.186h3.463c.167 0 .307.062.422.186a.584.584 0 0 1 .171.403v13.417l3.776-4.338c.25-.248.51-.372.78-.372H25.7c.27 0 .457.103.562.31.104.206.072.423-.094.65l-4.119 4.741 4.993 5.764c.166.206.197.413.093.62-.104.206-.291.31-.561.31H22.36a.566.566 0 0 1-.468-.249l-4.244-5.391v5.05a.584.584 0 0 1-.171.403.55.55 0 0 1-.422.186h-3.463a.568.568 0 0 1-.406-.186.56.56 0 0 1-.187-.403Zm19.97-16.267a2.387 2.387 0 0 1-1.747.713 2.387 2.387 0 0 1-1.747-.713 2.353 2.353 0 0 1-.718-1.735c0-.682.239-1.266.718-1.751a2.36 2.36 0 0 1 1.747-.728c.686 0 1.274.242 1.763.728.489.485.733 1.069.733 1.75 0 .682-.25 1.26-.749 1.736ZM28.945 42.1V30.885c0-.166.057-.305.172-.419a.575.575 0 0 1 .42-.17h3.433c.167 0 .307.057.422.17a.567.567 0 0 1 .171.418v11.217a.56.56 0 0 1-.187.403.568.568 0 0 1-.406.186h-3.432a.568.568 0 0 1-.406-.186.56.56 0 0 1-.187-.403Zm12.294.59-5.866-11.559c-.104-.206-.099-.397.016-.573.114-.175.286-.263.514-.263h3.495c.27 0 .458.113.562.34l1.84 4.215h.095l1.965-4.214c.084-.166.177-.264.281-.295.104-.03.291-.046.562-.046h3.151c.23 0 .4.088.515.263.115.176.12.367.016.573L42.456 42.69a.588.588 0 0 1-.53.31h-.156a.588.588 0 0 1-.53-.31Zm13.012-16.857a2.387 2.387 0 0 1-1.747.713 2.387 2.387 0 0 1-1.748-.713 2.353 2.353 0 0 1-.717-1.735c0-.682.239-1.266.717-1.751a2.36 2.36 0 0 1 1.748-.728c.686 0 1.274.242 1.763.728.489.485.733 1.069.733 1.75 0 .682-.25 1.26-.749 1.736ZM50.226 42.1V30.885c0-.166.057-.305.172-.419a.575.575 0 0 1 .42-.17h3.433c.166 0 .307.057.421.17a.567.567 0 0 1 .172.418v11.217a.56.56 0 0 1-.187.403.568.568 0 0 1-.406.186H50.82a.568.568 0 0 1-.406-.186.56.56 0 0 1-.187-.403Z" fill="#fff"/></g><defs><clipPath id="a"><path fill="#fff" d="M0 0h67v67H0z"/></clipPath></defs></svg>