<svg width="50" height="50" fill="none" xmlns="http://www.w3.org/2000/svg"><g fill="#3D3D63"><path fill-rule="evenodd" clip-rule="evenodd" d="M41.15 44.442h2.233v.008a.833.833 0 1 1 0 1.667H6.617a.833.833 0 1 1 0-1.667H8.85v-.625a7.708 7.708 0 0 1 7.708-7.7h.942l-.3-.542a.833.833 0 0 1 0-.833l1.2-2.083a9.741 9.741 0 0 1-3.4-7.075 4.083 4.083 0 0 1-3.425-3.925v-1.059a2.392 2.392 0 0 1 2.45-2.325H15v-.908h-1.258a2.625 2.625 0 0 1 0-5.242h2.091V7.8a3.908 3.908 0 0 1 5.184-3.7l2.7.9a3.983 3.983 0 0 0 2.566 0l2.709-.9a3.908 3.908 0 0 1 5.175 3.7v4.333h2.1a2.625 2.625 0 0 1 0 5.242H35v.908h.975a2.392 2.392 0 0 1 2.45 2.325v1.059A4.083 4.083 0 0 1 35 25.592a9.742 9.742 0 0 1-3.408 7.083l1.2 2.083a.834.834 0 0 1 0 .834l-.292.525H33.442a7.708 7.708 0 0 1 7.708 7.7v.625ZM13.242 21.667a2.375 2.375 0 0 0 1.758 2.2V19.95h-.975a.725.725 0 0 0-.783.658v1.059ZM31.1 35.175l-2.575 4.717-2.325-2.317 4.1-3.775.8 1.375Zm5.658-14.567a.725.725 0 0 0-.783-.658H35v3.917a2.375 2.375 0 0 0 1.758-2.2v-1.059ZM17.5 7.8a2.208 2.208 0 0 1 .942-1.825 2.242 2.242 0 0 1 2.033-.3l2.692.925a5.7 5.7 0 0 0 3.65 0l2.691-.925a2.242 2.242 0 0 1 2.034.3c.6.413.96 1.096.958 1.825v1.317h-15V7.8Zm15 2.983h-15v1.35h15v-1.35Zm-18.767 4.925a.958.958 0 0 1 0-1.908h22.5a.958.958 0 0 1 0 1.908h-22.5Zm2.934 1.667V25.3a8.333 8.333 0 0 0 16.666 0v-7.925H16.667ZM25 35.117c.522-.001 1.042-.04 1.558-.117L25 36.417 23.442 35c.515.077 1.036.116 1.558.117Zm-3.525 4.816 2.325-2.316-4.067-3.775-.833 1.375 2.575 4.716Zm.75 4.55H10.517v-.625a6.042 6.042 0 0 1 6.041-6.033h.884c.313-.003.625-.03.933-.083l2.175 3.925a.833.833 0 0 0 .608.433h.125a.834.834 0 0 0 .584-.25l.183-.175c.1.356.422.604.792.608l-.617 2.2Zm2.383-2.15-.641 2.15h2.066l-.641-2.15h-.784Zm1.859-1.666H23.55l-.067-.375L25 38.733l1.525 1.517-.058.417Zm1.308 3.816h11.717l.008-.666a6.042 6.042 0 0 0-6.042-6.034h-.675a5.597 5.597 0 0 1-1.116-.125l-2.242 4.059a.834.834 0 0 1-.608.433h-.125a.834.834 0 0 1-.584-.25l-.183-.175a.833.833 0 0 1-.792.608l.642 2.15Z"/><path d="M21.733 27.083a.833.833 0 0 0-.433 1.1 4.033 4.033 0 0 0 7.4 0 .84.84 0 1 0-1.533-.683 2.358 2.358 0 0 1-4.334 0 .833.833 0 0 0-1.1-.417ZM21.3 22.167c.46 0 .833-.373.833-.834v-.958a.833.833 0 1 0-1.666 0v.958c0 .46.373.834.833.834ZM28.7 22.167c.46 0 .833-.373.833-.834v-.958a.833.833 0 1 0-1.666 0v.958c0 .46.373.834.833.834Z"/></g></svg>