<svg width="43" height="43" fill="none" xmlns="http://www.w3.org/2000/svg"><g filter="url(#a)"><circle cx="21.5" cy="19.5" r="17.5" fill="#fff"/></g><mask id="b" style="mask-type:alpha" maskUnits="userSpaceOnUse" x="13" y="17" width="5" height="5"><path fill-rule="evenodd" clip-rule="evenodd" d="M13.016 17.204h4.461v4.477h-4.461v-4.477Z" fill="#fff"/></mask><g mask="url(#b)"><path fill-rule="evenodd" clip-rule="evenodd" d="M17.476 19.444a2.241 2.241 0 0 0-2.238-2.24A2.241 2.241 0 0 0 13 19.444a2.24 2.24 0 0 0 2.238 2.237 2.241 2.241 0 0 0 2.238-2.237Zm-3.687 0c0-.8.65-1.45 1.45-1.45.8 0 1.45.65 1.45 1.45a1.45 1.45 0 0 1-2.9 0Z" fill="#000"/></g><path fill-rule="evenodd" clip-rule="evenodd" d="M23.62 19.444a2.241 2.241 0 0 0-2.238-2.24 2.241 2.241 0 0 0-2.238 2.24 2.24 2.24 0 0 0 2.238 2.237 2.241 2.241 0 0 0 2.238-2.237Zm-2.237 1.448a1.45 1.45 0 0 1 0-2.9 1.45 1.45 0 0 1 0 2.9ZM27.528 17.204a2.241 2.241 0 0 0-2.239 2.239 2.24 2.24 0 0 0 2.239 2.238 2.24 2.24 0 0 0 2.237-2.238 2.24 2.24 0 0 0-2.237-2.239Zm0 3.688a1.451 1.451 0 0 1 0-2.9 1.45 1.45 0 0 1 0 2.9Z" fill="#000"/><defs><filter id="a" x="0" y="0" width="43" height="43" filterUnits="userSpaceOnUse" color-interpolation-filters="sRGB"><feFlood flood-opacity="0" result="BackgroundImageFix"/><feColorMatrix in="SourceAlpha" values="0 0 0 0 0 0 0 0 0 0 0 0 0 0 0 0 0 0 127 0" result="hardAlpha"/><feOffset dy="2"/><feGaussianBlur stdDeviation="2"/><feColorMatrix values="0 0 0 0 0 0 0 0 0 0 0 0 0 0 0 0 0 0 0.196643 0"/><feBlend in2="BackgroundImageFix" result="effect1_dropShadow_1804_14964"/><feBlend in="SourceGraphic" in2="effect1_dropShadow_1804_14964" result="shape"/></filter></defs></svg>