<svg width="24" height="25" fill="none" xmlns="http://www.w3.org/2000/svg"><path fill-rule="evenodd" clip-rule="evenodd" d="m23.67 23.928-6.934-7.212A9.773 9.773 0 0 0 19.601 9.8c0-5.406-4.398-9.801-9.8-9.801C4.395 0 0 4.395 0 9.8c0 5.403 4.395 9.801 9.8 9.801 2.372 0 4.549-.85 6.246-2.256l6.95 7.23a.47.47 0 0 0 .66.012.467.467 0 0 0 .014-.659ZM9.8 18.666c-4.89 0-8.866-3.978-8.866-8.865C.934 4.91 4.91.934 9.801.934c4.887 0 8.865 3.976 8.865 8.867 0 4.887-3.978 8.865-8.865 8.865Z" fill="#9B9B9B"/></svg>