<svg width="47" height="47" fill="none" xmlns="http://www.w3.org/2000/svg"><g fill="#3D3D63"><path fill-rule="evenodd" clip-rule="evenodd" d="M22.956 35.545V30.39a.773.773 0 0 0-.773-.773H12.69a.773.773 0 0 0-.773.773v5.155a.773.773 0 0 0-.626.773c0 .427.346.773.773.773h10.752a.773.773 0 0 0 .772-.773.773.773 0 0 0-.633-.773Zm-6.292 0h-3.2v-4.382h3.2v4.382Zm1.546 0h3.2v-4.382h-3.2v4.382Z"/><path d="M29.773 36.287a.95.95 0 1 0 0-1.901.95.95 0 0 0 0 1.901Z"/><path fill-rule="evenodd" clip-rule="evenodd" d="M39.589 40.585h2.148a.773.773 0 0 1 0 1.546h-37.1a.773.773 0 1 1 0-1.546h2.15V27.677a3.578 3.578 0 0 1-.874-.61 3.942 3.942 0 0 1-1.214-2.837.843.843 0 0 1 0-.201l2.505-9.059a.773.773 0 0 1 .772-.564h6.253v-2.125h-1.816a.773.773 0 0 1-.773-.773v-5.24c0-.428.346-.774.773-.774h21.549c.427 0 .773.346.773.773v5.24a.773.773 0 0 1-.773.774h-1.816v2.125h6.283a.773.773 0 0 1 .773.564l2.535 9.198a.844.844 0 0 1 0 .201 3.687 3.687 0 0 1-2.148 3.355v12.86Zm-10.164-28.15v1.816H30.6v-1.816h-1.175ZM13.194 7.04h19.995v3.695H13.186l.008-3.695Zm3.764 7.227v-1.816l-1.183-.016v1.832h1.183Zm1.546-1.97h9.375v2.125h-9.383l.008-2.126Zm9.398 28.288h5.009v-9.422h-5.009v9.422Zm10.141 0h-3.586V30.39a.773.773 0 0 0-.773-.773h-6.555a.773.773 0 0 0-.773.773v10.195H8.332V28.087h.216a3.671 3.671 0 0 0 2.482-1.09c.118-.114.227-.238.324-.371.706.92 1.8 1.46 2.96 1.46.99.008 1.94-.385 2.636-1.09.114-.114.223-.236.325-.362a3.733 3.733 0 0 0 2.952 1.453c.99.006 1.94-.386 2.636-1.09.116-.116.225-.24.325-.371.706.92 1.8 1.46 2.96 1.46a3.671 3.671 0 0 0 2.628-1.09c.116-.115.224-.24.324-.37.706.92 1.8 1.46 2.96 1.46.99.008 1.94-.385 2.636-1.09.115-.114.223-.236.325-.362a3.718 3.718 0 0 0 2.952 1.453h.07v12.498Zm-2.25-16.216c0 1.205.975 2.183 2.18 2.187a2.134 2.134 0 0 0 1.53-.626c.39-.386.62-.905.642-1.453l-2.319-8.502h-3.555l.92 5.016a.773.773 0 0 1-.618.897h-.14a.773.773 0 0 1-.773-.634l-.973-5.294H29.1l.472 5.078a.773.773 0 0 1-.704.842h-.07a.773.773 0 0 1-.772-.703l-.48-5.225H23.96v5.155a.773.773 0 1 1-1.545 0V15.93H18.82l-.479 5.225a.773.773 0 0 1-.773.703h-.07a.772.772 0 0 1-.703-.842l.472-5.079h-3.586l-.974 5.295a.773.773 0 0 1-.773.634h-.14a.773.773 0 0 1-.618-.897l.92-5.016H8.541L6.222 24.33a2.38 2.38 0 0 0 .734 1.623c.413.402.97.62 1.546.603a2.18 2.18 0 0 0 2.08-2.187.773.773 0 0 1 1.545 0 2.187 2.187 0 1 0 4.375 0 .773.773 0 1 1 1.546 0 2.187 2.187 0 1 0 4.367 0 .773.773 0 1 1 1.545 0 2.187 2.187 0 0 0 2.18 2.18 2.187 2.187 0 0 0 2.18-2.188.773.773 0 1 1 1.546 0c0 1.208.979 2.188 2.187 2.188a2.133 2.133 0 0 0 1.546-.634 2.18 2.18 0 0 0 .649-1.546.773.773 0 0 1 1.546 0Z"/></g></svg>