<svg width="51" height="50" fill="none" xmlns="http://www.w3.org/2000/svg"><g fill="#3D3D63"><path fill-rule="evenodd" clip-rule="evenodd" d="M45.192 25.367h-.275V12.442a2.5 2.5 0 0 0-2.5-2.5H7.975a2.5 2.5 0 0 0-2.5 2.5V33.55a1.941 1.941 0 0 0 1.942 1.95h11.341l-.833 3.083h-1.067a3.6 3.6 0 0 0-3.5 2.775h-2.05a.833.833 0 0 0 0 1.667h23.067c.078 1.01.92 1.79 1.933 1.792h8.884a1.95 1.95 0 0 0 1.95-1.95v-15.55a1.95 1.95 0 0 0-1.95-1.95ZM18.25 11.608h24.167c.46 0 .833.373.833.834v12.925h-6.942a1.95 1.95 0 0 0-1.95 1.95v2.625H18.25V11.608Zm15.275 26.975c.28.003.56.037.833.1l.034-3.183h-2.734l.834 3.083h1.033ZM7.142 12.442c0-.46.373-.834.833-.834h8.608v18.334H7.142v-17.5Zm0 21.108c0 .153.121.279.275.283h26.941v-2.225H7.142v1.942Zm23.608 5.033H19.625l.833-3.083h9.459l.833 3.083Zm2.767 1.667H16.858a1.942 1.942 0 0 0-1.75 1.108H34.35v-.916a1.882 1.882 0 0 0-.833-.192Zm11.95 2.617a.283.283 0 0 1-.284.283h-8.875a.283.283 0 0 1-.283-.283v-1.2h9.45l-.008 1.2Zm-9.442-2.834h9.442l.008-12.716a.283.283 0 0 0-.283-.284h-8.884a.283.283 0 0 0-.283.284v12.716Z"/><path d="M42.417 28.15h-3.334a.833.833 0 0 0 0 1.667h3.334a.833.833 0 0 0 0-1.667ZM14.642 14.25h-2.225a.833.833 0 1 0 0 1.667h2.225a.833.833 0 0 0 0-1.667Z"/><circle cx="9.358" cy="15.083" r=".833"/><path d="M14.642 18.692h-2.225a.833.833 0 1 0 0 1.666h2.225a.833.833 0 0 0 0-1.666ZM14.642 21.467h-2.225a.833.833 0 1 0 0 1.666h2.225a.833.833 0 0 0 0-1.666Z"/><circle cx="9.358" cy="19.525" r=".833"/><path fill-rule="evenodd" clip-rule="evenodd" d="M41.175 17.3a3.617 3.617 0 1 1-7.233 0 3.617 3.617 0 0 1 7.233 0Zm-1.814-.736a1.95 1.95 0 1 0-3.605 1.489 1.95 1.95 0 0 0 3.605-1.489Z"/><path d="M21.442 18.75h5a.833.833 0 0 0 0-1.667h-5a.833.833 0 1 0 0 1.667ZM28.85 19.858h-7.408a.833.833 0 1 0 0 1.667h7.408a.833.833 0 0 0 0-1.667ZM31.35 14.25h-9.908a.833.833 0 1 0 0 1.667h9.908a.833.833 0 0 0 0-1.667ZM26.025 26.467h-4.583a.833.833 0 1 0 0 1.666h4.583a.833.833 0 0 0 0-1.666ZM21.442 25.358h1.95a.833.833 0 0 0 0-1.666h-1.95a.833.833 0 1 0 0 1.666Z"/></g></svg>